# xmcd
#
# Track frame offsets: 
#        150
#        58860
#        97215
#        145162
#
# Disc length: 3070 seconds
#
# Revision: 2
# Processed by: cddbd v1.5.2PL0 Copyright (c) Steve Scherf et al.
# Submitted via: ExactAudioCopyFreeDBPlugin 1.0
#
DISCID=390bfc04
DTITLE=ノイマン チェコ・フィルハーモニー管弦楽団 - マーラー 交響曲全集 Disk1
DYEAR=1996
DGENRE=Classical
TTITLE0=交響曲第1番 ニ長調 《巨人》 第1楽章
TTITLE1=交響曲第1番 ニ長調 《巨人》 第2楽章
TTITLE2=交響曲第1番 ニ長調 《巨人》 第3楽章
TTITLE3=交響曲第1番 ニ長調 《巨人》 第4楽章
EXTD=録音：1962〜82年、プラハ《芸術家の家》
EXTT0=
EXTT1=
EXTT2=
EXTT3=
PLAYORDER=
